<svg width="501" height="439" viewBox="0 0 501 439" fill="none" xmlns="http://www.w3.org/2000/svg">
<path d="M200.415 256C198.95 256.648 197.525 257.384 196.15 258.205C194.718 259.094 193.412 260.168 192.264 261.401C191.029 262.402 189.95 263.582 189.063 264.902C188.274 266.372 187.594 267.899 187.029 269.47C185.618 272.431 184.921 275.682 184.993 278.962C184.756 282.253 185.247 285.555 186.429 288.635C187.612 291.716 189.457 294.498 191.834 296.786C194.03 299.211 196.708 301.151 199.697 302.482C202.686 303.813 205.92 304.505 209.192 304.514C212.483 304.75 215.785 304.259 218.865 303.077C221.946 301.894 224.728 300.049 227.016 297.672C229.266 295.346 231.044 292.606 232.25 289.603C233.606 286.605 234.356 283.369 234.458 280.08C234.561 276.792 234.013 273.515 232.846 270.439C231.676 267.353 229.907 264.529 227.64 262.131C225.373 259.732 222.654 257.806 219.639 256.464C216.624 255.121 213.373 254.389 210.073 254.309C206.774 254.23 203.492 254.804 200.415 256ZM351.769 -40.3063C306.599 -60.4175 256.479 -66.6825 207.748 -58.3089C159.016 -49.9354 113.863 -27.2994 77.9963 6.73649C42.1299 40.7724 17.1618 84.6796 6.24936 132.906C-4.6631 181.132 -1.02979 231.511 16.6898 277.672C34.4094 323.833 65.4195 363.703 105.799 392.24C146.178 420.778 194.112 436.7 243.541 437.994C292.969 439.289 341.671 425.897 383.489 399.512C425.306 373.127 458.36 334.935 478.471 289.764C491.825 259.772 499.14 227.444 499.999 194.624C500.859 161.805 495.245 129.138 483.48 98.4881C471.715 67.8382 454.028 39.8058 431.429 15.9915C408.83 -7.82292 381.761 -26.9529 351.769 -40.3063V-40.3063ZM168.738 370.789C132.601 354.7 102.047 328.257 80.9394 294.803C59.8316 261.349 49.118 222.387 50.1535 182.845C51.1889 143.302 63.9269 104.954 86.7566 72.6511C109.586 40.3478 141.482 15.5397 178.411 1.36401C215.34 -12.8117 255.644 -15.7183 294.224 -6.98836C332.805 1.7416 367.931 21.7161 395.16 50.4092C422.389 79.1023 440.497 115.225 447.196 154.21C453.895 193.195 448.883 233.291 432.794 269.427C411.219 317.885 371.279 355.787 321.759 374.796C272.238 393.805 217.195 392.364 168.738 370.789V370.789ZM300.927 73.8869C288.896 68.5211 275.664 66.4188 262.562 67.7916C249.46 69.1644 236.951 73.9638 226.294 81.707C223.484 83.5707 221.08 85.9835 219.227 88.8003C217.374 91.6171 216.11 94.7797 215.511 98.0977C214.911 101.416 214.99 104.821 215.74 108.108C216.491 111.395 217.899 114.496 219.88 117.225C221.86 119.954 224.372 122.254 227.265 123.986C230.157 125.719 233.37 126.849 236.71 127.308C240.051 127.767 243.449 127.545 246.702 126.657C249.954 125.768 252.993 124.231 255.636 122.137C259.2 119.548 263.385 117.946 267.767 117.494C272.149 117.042 276.573 117.756 280.59 119.564C286.647 122.261 291.385 127.254 293.761 133.444C296.137 139.634 295.957 146.514 293.26 152.571C290.564 158.628 285.571 163.366 279.381 165.742C273.191 168.118 266.311 167.938 260.253 165.241C254.196 162.545 247.316 162.364 241.126 164.741C234.936 167.117 229.943 171.854 227.246 177.912L217.078 200.75C214.381 206.807 214.201 213.688 216.577 219.878C218.953 226.068 223.691 231.061 229.748 233.757C235.805 236.454 242.686 236.634 248.876 234.258C255.066 231.882 260.058 227.144 262.755 221.087L264.585 216.976C282.13 218.22 299.555 213.259 313.812 202.958C328.07 192.658 338.253 177.674 342.583 160.626C346.913 143.578 345.113 125.551 337.499 109.696C329.884 93.8403 316.939 81.1655 300.927 73.8869V73.8869Z" fill="white"/>
</svg>
